<?xml version="1.0" encoding="UTF-8" standalone="no"?>
<svg
   xmlns:dc="http://purl.org/dc/elements/1.1/"
   xmlns:cc="http://creativecommons.org/ns#"
   xmlns:rdf="http://www.w3.org/1999/02/22-rdf-syntax-ns#"
   xmlns:svg="http://www.w3.org/2000/svg"
   xmlns="http://www.w3.org/2000/svg"
   xmlns:sodipodi="http://sodipodi.sourceforge.net/DTD/sodipodi-0.dtd"
   xmlns:inkscape="http://www.inkscape.org/namespaces/inkscape"
   width="786.14172"
   height="377.95276"
   viewBox="0 0 62.4 30.000001"
   version="1.1"
   id="svg8"
   inkscape:version="1.0.1 (3bc2e813f5, 2020-09-07)"
   sodipodi:docname="logotype2.svg">
  <defs
     id="defs2" />
  <sodipodi:namedview
     id="base"
     pagecolor="#ffffff"
     bordercolor="#666666"
     borderopacity="1.0"
     inkscape:pageopacity="0.0"
     inkscape:pageshadow="2"
     inkscape:zoom="0.54787458"
     inkscape:cx="211.6455"
     inkscape:cy="78.302517"
     inkscape:document-units="mm"
     inkscape:current-layer="layer1"
     inkscape:document-rotation="0"
     showgrid="false"
     inkscape:window-width="1368"
     inkscape:window-height="836"
     inkscape:window-x="72"
     inkscape:window-y="27"
     inkscape:window-maximized="1"
     fit-margin-top="0"
     fit-margin-left="0"
     fit-margin-right="0"
     fit-margin-bottom="0"
     units="px"
     scale-x="0.3" />
  <metadata
     id="metadata5">
    <rdf:RDF>
      <cc:Work
         rdf:about="">
        <dc:format>image/svg+xml</dc:format>
        <dc:type
           rdf:resource="http://purl.org/dc/dcmitype/StillImage" />
        <dc:title></dc:title>
      </cc:Work>
    </rdf:RDF>
  </metadata>
  <g
     inkscape:label="Layer 1"
     inkscape:groupmode="layer"
     id="layer1"
     transform="translate(-63.538722,-128.94873)">
    <g
       id="g1205"
       transform="matrix(0.99262885,0,0,1.1100651,-9.1660051,-23.360435)">
      <g
         id="g1072"
         style="fill:#fff;fill-opacity:1"
         transform="translate(0.75468617,2.010954)">
        <path
           id="path1076"
           style="fill:#fff;fill-opacity:1;stroke-width:0.32"
           transform="matrix(0.26458333,0,0,0.26458333,-0.75468617,-2.010954)"
           d="m 456.99609,606.93945 c 0.0189,0.0185 0.0269,0.0317 0.0469,0.0508 0.0415,0.0396 0.0266,0.007 -0.004,-0.0449 -0.0156,-2.7e-4 -0.0273,-0.006 -0.043,-0.006 z m -110.16797,1.82227 c -0.11105,0.10636 -0.23828,0.22384 -0.23828,0.25781 0,0.0603 0.0162,0.0949 0.043,0.10938 0.0713,-0.046 0.12272,-0.0904 0.19922,-0.13672 -3.7e-4,-0.0676 -0.003,-0.18748 -0.004,-0.20703 1.9e-4,-0.008 -1.1e-4,-0.0158 0,-0.0234 z m 77.04883,1.3789 c -0.003,0.0383 -0.005,0.0438 -0.008,0.0957 0.0197,-0.0127 0.0342,-0.0266 0.0547,-0.0391 -0.0189,-0.0292 -0.03,-0.034 -0.0469,-0.0566 z m 36.88477,0.0215 c -0.0158,0.008 -0.0635,0.0384 -0.0781,0.0449 0.0755,0.26687 0.10001,0.38382 0.13477,0.5293 0.007,-0.0432 0.003,-0.0874 0.008,-0.13086 -0.0193,-0.12682 -0.009,-0.08 -0.0644,-0.44336 z m -46.58594,9.63867 c -0.006,2.8e-4 -0.0119,0.002 -0.0176,0.002 0.002,0.0148 0.13695,0.12006 0.2168,0.1875 0.0866,0.006 0.17315,0.0134 0.25977,0.0195 -1.3e-4,-0.004 10e-5,-0.008 0,-0.0117 -0.27793,-0.13426 -0.42737,-0.20109 -0.45899,-0.19727 z m 0.46094,0.36914 c -0.0171,10e-4 -0.0338,0.003 -0.0508,0.004 0.0173,0.0139 0.0186,0.0122 0.0351,0.0254 0.006,0.003 0.012,0.006 0.0176,0.01 -7e-5,-0.0123 -0.002,-0.0265 -0.002,-0.0391 z m 0.002,0.0391 v 0.002 c 0.57131,0.45117 0.75195,0.53285 0.75195,0.30078 0,-0.009 -0.038,-0.0314 -0.0449,-0.043 -0.19739,-0.051 -0.44867,-0.10602 -0.52539,-0.14258 -0.0653,-0.0312 -0.12124,-0.0776 -0.18164,-0.11719 z" />
        <path
           id="path1074"
           style="fill:#fff;fill-opacity:1;stroke-width:0.32"
           transform="matrix(0.26458333,0,0,0.26458333,-0.75468617,-2.010954)"
           d="m 471.23047,518.58203 c -4.84003,0 -8.80231,0.10833 -8.80469,0.24024 -0.002,0.13198 -0.0911,0.56296 -0.19726,0.95898 -0.19163,0.71622 -0.16964,0.7207 3.36328,0.7207 1.95654,0 3.55859,0.0367 3.55859,0.082 0,0.0455 -0.44121,1.30621 -0.98047,2.80079 -0.53926,1.49453 -1.17513,3.29211 -1.41211,3.99609 -0.23682,0.70401 -1.10463,3.15339 -1.92773,5.44141 -0.82311,2.28797 -1.99407,5.59936 -2.60352,7.35937 -0.60945,1.76001 -1.23043,3.48797 -1.38086,3.83984 -0.15038,0.35199 -0.97121,2.61911 -1.82422,5.03907 -0.853,2.41995 -1.6477,4.40035 -1.76562,4.40039 -0.11788,4e-5 -0.30647,-0.41552 -0.41797,-0.92383 -0.27326,-1.24418 -2.24744,-3.16037 -3.66016,-3.55273 -3.78024,-1.05011 -9.52309,0.49402 -14.71484,3.95898 -3.08039,2.05584 -3.77635,2.63865 -6.91797,5.78711 -7.39529,7.41135 -10.90561,17.27496 -8.82226,24.79297 1.26478,4.56415 3.27912,6.77556 7.70703,8.46289 0.264,0.10242 1.56086,0.13495 2.88086,0.0762 2.05432,-0.0915 2.73807,-0.28536 4.74609,-1.3457 2.7727,-1.46415 6.10615,-4.2149 7.89258,-6.51172 l 1.28125,-1.64649 0.16015,2.8125 c 0.17356,3.0497 0.44283,3.75959 1.89844,4.98438 1.71942,1.44676 3.55499,1.93589 6.56641,1.74805 4.97371,-0.3103 8.85434,-2.92139 11.37695,-7.6543 1.05551,-1.98062 1.07413,-2.82813 0.0625,-2.82813 -0.40528,0 -0.84373,0.53226 -1.37109,1.66797 -0.86899,1.87144 -3.91944,5.18563 -5.23438,5.68555 -1.25544,0.47732 -2.92106,0.40013 -3.38281,-0.15625 -0.27515,-0.33184 -0.35148,-1.20983 -0.24414,-2.80078 0.15122,-2.24417 1.46706,-6.48936 5.48047,-17.67578 0.63144,-1.76002 1.78785,-5.00119 2.56836,-7.20118 0.78047,-2.19996 2.01842,-5.65571 2.75195,-7.67968 0.73349,-2.02402 1.48025,-4.18284 1.66016,-4.79883 0.17975,-0.61603 0.51226,-1.55208 0.73828,-2.08008 0.64414,-1.50512 4.64938,-12.76915 4.64844,-13.07226 -5e-4,-0.14941 0.19876,-0.72469 0.4414,-1.2793 0.24276,-0.55461 1.1183,-2.95213 1.94727,-5.32813 0.829,-2.376 1.78276,-4.99569 2.11914,-5.82031 1.09591,-2.68739 1.709,-2.5 -8.1875,-2.5 z m -132.05274,0.0176 c -2.74758,-0.0464 -5.68267,0.57228 -8.33203,1.89648 -3.53974,1.76924 -5.19541,2.98565 -8.15429,5.98633 -2.97574,3.01777 -5.99879,7.34546 -7.63672,10.9336 -0.61378,1.34452 -1.24504,2.67463 -1.40235,2.95507 -0.15731,0.2806 -0.74207,2.15278 -1.29882,4.16016 -0.55676,2.00742 -1.16149,4.04529 -1.34571,4.5293 l -0.33593,0.88086 H 306.71094 302.75 v 0.96093 0.95899 h 3.85938 c 2.16229,0 3.78186,0.12408 3.68359,0.2832 -0.17451,0.28233 -1.29532,4.24694 -2.4082,8.51758 -0.32105,1.23197 -0.90277,3.3908 -1.29297,4.79883 -0.39021,1.40798 -0.8971,3.28017 -1.125,4.16015 -0.22792,0.88003 -0.7968,2.96864 -1.26563,4.64063 -0.46883,1.67199 -1.13991,4.11945 -1.49023,5.43945 -1.07693,4.05789 -1.46728,5.48748 -2.35547,8.64063 -0.47098,1.67202 -1.0684,3.83091 -1.32813,4.79882 -0.6456,2.40617 -2.97294,9.16092 -3.51367,10.19727 -0.24234,0.46443 -0.44032,0.95744 -0.4414,1.09766 -0.005,0.67612 -3.18517,5.66232 -4.36329,6.84179 -2.23827,2.24085 -4.93382,2.51279 -5.74218,0.57813 -0.38762,-0.92769 -0.35113,-1.34388 0.34961,-3.87695 0.95029,-3.43518 0.97156,-4.13981 0.16601,-5.46094 -0.90063,-1.47719 -2.73054,-1.92652 -4.93359,-1.21094 -3.0029,0.97535 -3.71875,2.14468 -3.71875,6.07422 0,2.92006 0.33253,3.96478 1.64844,5.16406 1.16946,1.06579 3.46139,2.10205 5.2246,2.36133 v -0.002 c 2.35213,0.34771 2.68278,0.3452 4.9668,-0.0234 10.17175,-1.64198 20.45668,-15.06188 24.99805,-32.61914 0.34143,-1.32 0.90778,-3.48078 1.25976,-4.80078 0.352,-1.32 0.92927,-3.47883 1.28125,-4.79883 0.352,-1.32 0.91795,-3.4454 1.25977,-4.72266 0.34181,-1.27721 0.90973,-3.40265 1.26172,-4.72265 0.352,-1.32 0.93865,-3.51417 1.30273,-4.87696 0.36407,-1.36274 0.88285,-3.37852 1.1543,-4.47851 l 0.49414,-2 h 5.0293 c 5.1972,0 5.79883,-0.13899 5.79883,-1.34375 0,-0.52989 -0.39798,-0.57617 -4.96094,-0.57617 -5.7498,0 -5.42918,0.27044 -4.29297,-3.63086 0.36676,-1.25934 0.95649,-3.29729 1.30859,-4.5293 4.39505,-15.37912 9.57259,-22.30711 15.80078,-21.13867 2.77513,0.52059 3.09299,2.46073 0.94727,5.78906 -1.224,1.89865 -1.43949,2.47379 -1.44141,3.86719 -0.002,1.14761 0.18798,1.87642 0.63086,2.43945 1.54112,1.95923 6.1828,1.65901 8.08985,-0.52344 0.82799,-0.94756 1.83789,-3.29348 1.83789,-4.26757 0,-1.45868 -1.33749,-4.54068 -2.58594,-5.95899 -1.90907,-2.1688 -5.13341,-3.32895 -8.66602,-3.38867 z m 17.10938,30.10937 c -2.34561,0.0452 -4.91241,0.37686 -6.54102,0.91993 -2.62774,0.87628 -6.24251,2.81916 -8.54101,4.59179 -9.84532,7.59292 -13.68028,20.42153 -8.94922,29.93555 1.03658,2.08456 3.07804,4.45635 4.92187,5.71875 0.89981,0.61606 3.48697,1.68714 5.0918,2.10742 1.08589,0.28441 7.29646,-0.052 8.48047,-0.45898 3.66329,-1.25919 5.63518,-2.14111 7.56836,-3.38477 5.79161,-3.72582 9.92945,-8.89587 12.1543,-15.1875 1.02564,-2.90037 1.39898,-8.67234 0.76953,-11.88086 -1.17728,-6.00098 -5.86546,-11.06323 -11.22266,-12.11719 -0.99667,-0.19601 -2.32506,-0.27126 -3.73242,-0.24414 z m 46.08008,0 c -2.34561,0.0452 -4.9124,0.37686 -6.54102,0.91993 -2.62771,0.87628 -6.24253,2.81916 -8.54101,4.59179 -9.84534,7.59292 -13.68028,20.42153 -8.94922,29.93555 1.03658,2.08456 3.07807,4.45635 4.92187,5.71875 0.89983,0.61606 3.48697,1.68714 5.0918,2.10742 1.0859,0.28441 7.29646,-0.052 8.48047,-0.45898 3.66327,-1.25919 5.63321,-2.14111 7.5664,-3.38477 5.7916,-3.72582 9.93144,-8.89587 12.15625,-15.1875 1.02558,-2.90037 1.39898,-8.67234 0.76954,-11.88086 -1.17729,-6.00098 -5.86548,-11.06323 -11.22266,-12.11719 -0.99668,-0.19601 -2.32506,-0.27126 -3.73242,-0.24414 z m 96.86133,0.125 c -3.89076,0.0117 -4.56761,0.10231 -6.80079,0.9004 -8.92097,3.18804 -15.76246,10.36341 -18.5039,19.40624 -1.00963,3.3351 -1.02246,8.47496 -0.0274,11.72657 1.86062,6.07785 5.62161,9.73219 11.41211,11.08984 h 0.002 c 0.35339,0.0823 1.71821,0.1625 3.03711,0.17383 9.25122,0.0894 19.19903,-6.64617 23.77929,-16.10156 1.91078,-3.94462 2.2931,-5.69693 2.29688,-10.56836 0.004,-3.97391 -0.083,-4.71358 -0.77539,-6.5586 -1.57523,-4.19731 -4.33822,-7.35254 -7.93164,-9.05468 -2.1131,-1.00237 -2.27702,-1.02501 -6.48828,-1.01368 z m -143.11133,1.73633 c 1.95581,-0.10783 3.86345,0.78503 4.80273,2.41211 0.69409,1.20235 0.72933,1.54168 0.60547,5.59961 -0.128,4.19411 -0.40875,5.84951 -1.87305,11.03906 -3.03949,10.77226 -7.39123,18.04846 -11.96679,20.00977 -2.62984,1.12728 -5.22479,0.58594 -6.67383,-1.39453 -0.59779,-0.81702 -0.66066,-1.35173 -0.65234,-5.44141 0.0106,-5.16472 0.59016,-8.25466 2.76953,-14.77344 3.05376,-9.13421 7.06115,-15.29872 11.05078,-17 0.62904,-0.26823 1.28556,-0.41522 1.9375,-0.45117 z m 46.08008,0 c 1.95581,-0.10783 3.86149,0.78503 4.80078,2.41211 0.69399,1.20235 0.73139,1.54168 0.60742,5.59961 -0.12798,4.19411 -0.40878,5.84951 -1.87305,11.03906 -3.03949,10.77226 -7.39122,18.04846 -11.9668,20.00977 -2.62977,1.12728 -5.22479,0.58594 -6.67382,-1.39453 -0.59785,-0.81702 -0.65991,-1.35173 -0.65235,-5.44141 0.0106,-5.16472 0.59015,-8.25466 2.76953,-14.77344 3.05375,-9.13421 7.06119,-15.29872 11.05079,-17 0.62904,-0.26823 1.28556,-0.41522 1.9375,-0.45117 z m 97.24804,0.17383 c 1.80382,-10e-4 2.48034,0.13571 3.16016,0.64258 2.98019,2.22206 2.72899,9.54558 -0.70313,20.47461 -3.13833,9.99341 -7.0938,16.10712 -11.55859,17.86328 -2.89618,1.13919 -5.37622,0.32127 -6.63477,-2.1875 -1.11382,-2.22028 -0.74187,-8.67367 0.8379,-14.55469 2.85276,-10.61998 6.85509,-18.25202 11.12304,-21.21094 1.32877,-0.92129 1.71468,-1.02575 3.77539,-1.02734 z m -48.47656,0.16016 c 3.41182,-0.0124 5.29262,3.0597 4.46094,7.28711 -0.33324,1.69375 -4.96081,14.90536 -6.35742,18.15039 -1.46752,3.40985 -7.55826,10.32854 -10.64258,12.08984 -2.41316,1.37802 -4.33931,1.3967 -5.45117,0.0547 -0.83528,-1.00823 -0.57836,-7.32183 0.46093,-11.34571 1.78345,-6.90475 5.13552,-14.56953 8.51367,-19.46289 2.53985,-3.67899 6.64772,-6.76587 9.01563,-6.77343 z m -68.00586,56.00195 c -0.13144,2.5e-4 -0.22351,8.5e-4 -0.34375,0.002 -0.016,0.002 -0.0397,0.007 -0.0527,0.008 -0.004,0.097 -0.003,0.0563 -0.006,0.14257 0.0674,-0.0105 0.14752,-0.0185 0.21093,-0.0293 0.0635,-0.0416 0.13003,-0.0784 0.19141,-0.12305 z m -0.40234,0.15234 c -0.008,10e-4 -0.019,0.003 -0.0273,0.004 0.009,1.2e-4 0.0182,0.002 0.0273,0.002 1.2e-4,-0.004 -1.3e-4,-0.002 0,-0.006 z m -0.0273,0.004 c 9.1e-4,-0.0423 0.003,-0.0783 0.004,-0.11914 -0.0135,0.018 -0.02,0.0291 -0.0332,0.0469 -1e-5,-4.9e-4 0.004,0.0711 0.004,0.0723 0.005,7e-5 0.0104,-7e-5 0.0156,0 0.003,-4.5e-4 0.007,4.5e-4 0.01,0 z m -0.0254,0 c -0.004,-5e-5 -0.008,5e-5 -0.0117,0 5e-5,0.001 -4e-5,0.003 0,0.004 0.004,-5.5e-4 0.008,-8.8e-4 0.0117,-0.002 z m -0.0117,0 c -6.3e-4,-0.0211 6.3e-4,-0.0379 0,-0.0586 -0.0163,0.022 -0.0252,0.0369 -0.041,0.0586 0.0137,1.6e-4 0.0273,-1.7e-4 0.041,0 z m 0,-0.0586 c 0.004,-0.005 0.004,-0.009 0.008,-0.0137 0,5.5e-4 -8.8e-4,-0.0633 -0.002,-0.0801 -0.003,10e-6 -0.005,-2e-5 -0.008,0 9.4e-4,0.0343 8e-4,0.0607 0.002,0.0937 z m 0.041,-0.0606 c 0.007,-0.009 0.009,-0.016 0.0156,-0.0254 0.003,-1.7e-4 0.0103,-0.002 0.0137,-0.002 1.9e-4,-0.005 -1.9e-4,-0.003 0,-0.008 -0.0101,6e-5 -0.0193,0.002 -0.0293,0.002 -2.5e-4,0.0116 2.2e-4,0.0218 0,0.0332 z m 70.33789,0.87305 c -0.003,-5.7e-4 -0.01,0.004 -0.0137,0.004 0.008,0.002 0.0156,0.004 0.0234,0.006 0.003,-0.002 0.007,-0.002 0.01,-0.004 -0.008,-0.002 -0.0128,-0.005 -0.0195,-0.006 z m -36.39062,0.2539 c -0.0889,-0.0108 -0.30048,0.0747 -0.42774,0.16016 0.0251,0.0241 0.0575,0.0509 0.0859,0.0762 0.1273,-0.0688 0.25325,-0.14193 0.37304,-0.2207 -0.005,-0.009 -0.0149,-0.0137 -0.0312,-0.0156 z m -66.4629,0.95313 c -2.1e-4,0.006 9e-5,0.0109 0,0.0195 0.0143,-0.005 0.0266,-0.008 0.0391,-0.0117 -0.0124,-0.002 -0.0265,-0.005 -0.0391,-0.008 z m 66.58204,2.1582 c -0.0576,0.0124 -0.0938,0.0435 -0.0957,0.10938 -0.003,0.0978 0.0688,0.16044 0.16211,0.21289 v -0.32032 c -0.0207,7.6e-4 -0.0491,-0.006 -0.0664,-0.002 z m 0.0664,2.45703 c -0.0104,0.0838 -0.0218,0.16728 -0.0332,0.25195 0.0136,0.0656 0.0209,0.12104 0.0332,0.1836 z m -2.83203,2.47852 c 0.007,0.0259 0.0176,0.059 0.0254,0.0859 0.0176,0.01 0.0368,0.0162 0.0547,0.0254 -9.9e-4,-0.005 -0.003,-0.009 -0.004,-0.0137 -0.0184,-0.0261 -0.0546,-0.0686 -0.0762,-0.0976 z m 2.83203,0.25586 c -0.007,9.1e-4 -0.0144,0.003 -0.0215,0.004 0.006,0.0116 0.015,0.0254 0.0215,0.0371 z m -1,0.1582 c -0.007,0.004 -0.0124,0.0101 -0.0195,0.0137 -0.009,0.0165 -0.0245,0.0295 -0.0312,0.0469 l 0.002,0.002 c -0.004,0.0155 0.0335,-0.0416 0.0488,-0.0625 z m -1.05469,0.38281 c -0.005,0.0126 10e-4,0.0409 0.0117,0.0801 0.048,0.0112 0.0378,0.006 0.082,0.0156 -0.0186,-0.0235 -0.0444,-0.0515 -0.0645,-0.0762 -0.01,-0.006 -0.0193,-0.0132 -0.0293,-0.0195 z m 0.0176,0.0957 c 0.0226,0.0805 0.0647,0.19491 0.13086,0.3457 0.0884,0.0389 0.17426,0.0842 0.26953,0.10937 -0.0687,-0.11689 -0.17449,-0.26379 -0.31445,-0.4414 -0.001,-4.8e-4 -0.003,-9.2e-4 -0.004,-0.002 -0.0345,-0.0126 -0.0572,-0.011 -0.082,-0.0117 z m 0.40625,0.87304 c 0.0273,0.0534 0.0513,0.10028 0.0801,0.1543 0.0107,-0.0355 0.0195,-0.0943 0.0293,-0.13672 -0.0385,-0.007 -0.0702,-0.0103 -0.10938,-0.0176 z m -67.77539,0.2793 c -0.13044,0.0624 -0.1151,0.0534 -0.21875,0.10351 0.0979,0.0193 0.18064,0.003 0.24805,-0.0488 -0.0105,-0.0178 -0.0186,-0.037 -0.0293,-0.0547 z m -0.38086,0.0332 c -2.6e-4,-1.3e-4 0.0116,0.0114 0.0117,0.0117 0.0402,0.0209 0.0834,0.0466 0.11914,0.0566 -0.0567,-0.0284 -0.0687,-0.0384 -0.13086,-0.0684 z m 0.14844,0.0781 c -0.0217,0.0105 -0.0263,0.0115 -0.0469,0.0215 0.15361,0.16286 0.68531,0.69945 0.51367,0.31055 -0.0182,-0.0412 -0.0427,-0.0788 -0.0625,-0.11914 -0.12939,-0.0703 -0.23083,-0.12574 -0.4043,-0.21289 z m 66.66406,0.0234 c -0.0289,0.008 0.0181,0.14552 0.0781,0.28124 0.0677,0.0274 0.1402,0.0486 0.21094,0.0723 -0.0853,-0.11283 -0.16381,-0.23181 -0.25977,-0.33594 -0.0137,-0.0149 -0.0228,-0.0194 -0.0293,-0.0176 z m 0.9336,1.45898 c -0.0768,0.0152 -0.13992,0.012 -0.21289,0.0215 0.0679,0.0764 0.14272,0.14577 0.21875,0.21289 -0.002,-0.0786 -5.3e-4,-0.14274 -0.006,-0.23437 z m -62.52344,0.54297 c -0.0695,0.0145 -0.13984,0.0244 -0.20899,0.041 -0.11304,0.0272 0.14909,0.28244 0.25586,0.23633 0.0749,-0.0323 0.16679,-0.0568 0.24805,-0.0859 -0.11542,-0.066 -0.20234,-0.12861 -0.29492,-0.1914 z m 63.46094,0.22851 c 0.16096,0.0661 0.31332,0.13946 0.49804,0.19532 -0.0182,-0.0144 -0.0366,-0.0262 -0.0547,-0.041 -0.0342,-0.0191 -0.0603,-0.0321 -0.0918,-0.0586 -0.11765,-0.0287 -0.21238,-0.0617 -0.35156,-0.0957 z m 0.35156,0.0957 c 0.009,0.002 0.0204,0.006 0.0293,0.008 -0.0425,-0.0371 -0.0884,-0.0619 -0.12891,-0.10352 -0.0408,-0.0417 0.0217,0.0302 0.0996,0.0957 z m 0.0293,0.008 c 0.0207,0.0181 0.0415,0.0336 0.0625,0.0508 0.0604,0.0339 0.11787,0.0513 0.14453,0 -0.0417,-0.0113 -0.14419,-0.0353 -0.20703,-0.0508 z m -28.84375,-0.0918 c 0.0755,0.0658 0.14503,0.10996 0.20507,0.11328 -0.0144,-0.0181 -0.0264,-0.0327 -0.043,-0.0527 -0.0516,-0.0203 -0.0878,-0.0317 -0.1621,-0.0606 z m 4.59375,0.004 c -0.004,0.006 -0.01,0.0101 -0.0137,0.0156 0.007,0.0224 0.0156,0.0142 0.0254,0.0215 v -0.0176 c -0.004,-0.007 -0.008,-0.0129 -0.0117,-0.0195 z" />
      </g>
      <path
         id="text1084"
         style="font-style:normal;font-weight:normal;font-size:10.5833px;line-height:1.25;font-family:sans-serif;fill:#fff;fill-opacity:1;stroke:none;stroke-width:0.264583"
         d="m 93.938452,160.04294 c -0.651124,0 -1.166165,0.18 -1.545127,0.54001 -0.377238,0.35829 -0.565857,0.84578 -0.565857,1.46245 0,0.61495 0.188619,1.10243 0.565857,1.46244 0.378962,0.35829 0.894003,0.53743 1.545127,0.53743 0.444418,0 0.798401,-0.0965 1.06195,-0.28938 0.263549,-0.19293 0.44614,-0.48834 0.547769,-0.88625 h -0.51418 c -0.07407,0.28938 -0.192924,0.50556 -0.356566,0.64853 -0.16192,0.14298 -0.37121,0.21446 -0.62787,0.21446 -0.37896,0 -0.659735,-0.1378 -0.842324,-0.41341 -0.182592,-0.27561 -0.273886,-0.70021 -0.273886,-1.27382 0,-0.57361 0.09129,-0.99822 0.273886,-1.27383 0.182589,-0.27733 0.461642,-0.41599 0.837157,-0.41599 0.291111,0 0.525378,0.081 0.7028,0.24288 0.177421,0.1602 0.299722,0.40221 0.366903,0.72605 h 0.328144 v -0.94826 c -0.277331,-0.11197 -0.540017,-0.19551 -0.788064,-0.25063 -0.248047,-0.0551 -0.486622,-0.0827 -0.715719,-0.0827 z m 6.894158,0.0698 v 0.31264 h 0.49351 v 3.23236 h -0.49351 v 0.31264 h 3.35638 v -0.96376 h -0.34881 v 0.60978 h -1.51929 v -3.19102 h 0.49609 v -0.31264 z m 8.12663,0 v 0.31264 h 0.49093 v 1.97921 c 0,0.58739 0.12833,1.00769 0.38499,1.2609 0.25666,0.25322 0.68385,0.37982 1.28157,0.37982 0.60117,0 1.02922,-0.12488 1.28416,-0.37465 0.25494,-0.25149 0.38241,-0.67179 0.38241,-1.2609 v -1.98438 h 0.49351 v -0.31264 h -1.34359 v 0.31264 h 0.49093 v 1.93012 c 0,0.47714 -0.0749,0.81304 -0.22479,1.00769 -0.14814,0.19292 -0.39964,0.28939 -0.75448,0.28939 -0.36346,0 -0.62012,-0.0956 -0.76998,-0.28681 -0.14986,-0.19292 -0.22479,-0.52968 -0.22479,-1.01027 v -1.93012 h 0.49351 v -0.31264 z m 9.44956,0 v 0.31264 h 0.4935 v 3.23236 h -0.4935 v 0.31264 h 2.14457 c 0.61495,0 1.06625,-0.0904 1.35392,-0.2713 0.28939,-0.18087 0.43408,-0.4625 0.43408,-0.84491 0,-0.28249 -0.10335,-0.50901 -0.31006,-0.67954 -0.2067,-0.17053 -0.50384,-0.27389 -0.89142,-0.31006 0.3204,-0.0344 0.56156,-0.11885 0.72348,-0.25322 0.16364,-0.13435 0.24546,-0.31608 0.24546,-0.54518 0,-0.31867 -0.118,-0.55724 -0.35399,-0.71572 -0.23599,-0.15847 -0.58911,-0.23771 -1.05936,-0.23771 z m 1.48828,0.31264 h 0.33848 c 0.30489,0 0.52624,0.0508 0.66404,0.15245 0.13952,0.10163 0.20929,0.26441 0.20929,0.48834 0,0.22221 -0.0715,0.38757 -0.21446,0.49609 -0.14297,0.1068 -0.36259,0.1602 -0.65887,0.1602 h -0.33848 z m 0,1.60714 h 0.36948 c 0.32556,0 0.56844,0.068 0.72864,0.20412 0.1602,0.13608 0.2403,0.34193 0.2403,0.61753 0,0.27389 -0.0792,0.47629 -0.23772,0.6072 -0.15847,0.13091 -0.40221,0.19637 -0.73122,0.19637 h -0.36948 z" />
    </g>
  </g>
</svg>
